<svg width="351" height="51" viewBox="0 0 351 51" fill="none" xmlns="http://www.w3.org/2000/svg">
<g clip-path="url(#clip0_80_131)">
<path d="M0.000272741 28.7664C0.000272741 17.0517 8.95447 0.686497 20.4638 0.686497C23.6294 0.686497 25.5062 1.79375 26.9985 3.87538C27.5864 4.73904 27.9482 4.69475 28.3326 3.72037L29.418 1.01867L30.4129 1.21798L26.7498 14.4828H25.7097C26.7046 7.59575 26.1619 2.36952 20.509 2.36952C10.4242 2.36952 3.30157 18.7347 3.30157 28.5671C3.30157 34.7234 6.01496 38.7317 11.0573 38.7317C17.0946 38.7317 21.73 33.2175 25.1896 26.0426H26.4785C22.6797 34.1698 18.1122 40.8576 10.0624 40.8576C3.14329 40.8576 -0.0223389 35.6756 -0.0223389 28.7442L0.000272741 28.7664Z" fill="black"/>
<path d="M48.9993 31.5345H50.0394C48.2983 35.6978 45.1553 40.3925 41.7862 40.3925C39.8642 40.3925 39.1633 39.3296 39.1633 37.868C39.1633 37.0043 39.6607 35.9192 40.0451 34.8563L42.8716 27.2605H42.4193C39.9999 32.3982 34.9575 40.5254 30.9552 40.5254C28.1288 40.5254 27.1565 38.2002 27.1565 34.9006C27.1565 26.6183 35.0253 13.9735 41.6053 13.9735C44.5222 13.9735 45.9015 16.0551 45.6528 19.244H45.8111L47.3034 15.2136C48.3888 15.2136 49.4289 14.5936 49.9716 13.7521L50.5143 13.9957L42.7585 34.8784C42.5098 35.6092 42.0575 36.6722 42.0575 37.2922C42.0575 38.023 42.2611 38.5102 43.0525 38.5102C45.0875 38.5102 47.3034 35.1663 49.0445 31.4902L48.9993 31.5345ZM42.9168 24.3152C43.4595 22.8537 44.0474 21.1264 44.0474 19.1776C44.0474 17.1403 43.4142 15.7894 41.6279 15.7894C36.5403 15.7894 30.0508 27.0834 30.0508 34.5905C30.0508 36.9158 30.503 38.2223 31.7919 38.2223C35.0479 38.2223 40.9496 29.6965 42.9168 24.3152Z" fill="black"/>
<path d="M52.7528 40.1046L59.4233 20.2406C59.8077 18.9783 60.3051 17.3838 60.3051 16.8081C60.3051 16.0773 60.0112 15.878 59.5589 15.878C57.8857 15.878 55.3532 19.0226 53.6799 21.9236H52.6398C54.6748 18.0925 58.0213 14.0842 61.1417 14.0842C62.4306 14.0842 63.0637 15.1029 63.0637 16.2545C63.0637 17.2731 62.5663 18.5797 61.9784 20.2184L58.7223 29.0321H59.0615C63.2672 17.3617 67.8122 13.9735 71.3848 13.9735C72.4249 13.9735 72.9676 14.4164 72.9676 15.1915C72.9676 16.2545 72.131 17.3174 71.0908 17.3174C70.2542 17.3174 69.802 16.8302 68.8071 16.8302C66.1389 16.8302 61.6844 22.1672 55.6019 40.0825H52.7302L52.7528 40.1046Z" fill="black"/>
<path d="M69.3499 33.3726C69.3499 24.1602 76.4725 13.9514 83.0525 13.9514C86.7156 13.9514 88.8863 17.0074 88.8863 21.5028C88.8863 30.6487 81.7184 40.7247 75.0932 40.7247C71.4301 40.7247 69.3499 37.868 69.3499 33.3726ZM86.0146 21.3478C86.0146 17.9596 84.884 15.5901 82.2611 15.5901C77.7162 15.5901 72.2215 25.3339 72.2215 33.4611C72.2215 36.805 73.2617 39.086 75.8846 39.086C80.4295 39.086 86.0146 29.5415 86.0146 21.3478Z" fill="black"/>
<path d="M104.556 0.199306L93.0919 34.8784C92.8432 35.6092 92.5493 36.7165 92.5493 37.3365C92.5493 38.0673 92.7528 38.5545 93.5442 38.5545C95.5792 38.5545 97.7952 35.2106 99.5363 31.5345H100.576C98.8353 35.6978 95.6923 40.3925 92.3232 40.3925C90.4012 40.3925 89.7002 39.3296 89.7002 37.868C89.7002 37.0043 90.0394 35.8749 90.4012 34.812L100.102 5.31481C100.893 3.07816 100.395 2.30308 96.7324 2.30308L97.0264 1.3287C101.775 1.3287 103.018 1.04082 103.991 -0.0221443L104.579 0.177161L104.556 0.199306Z" fill="black"/>
<path d="M110.729 35.4542C110.729 38.4659 111.068 39.086 113.985 39.086V40.1046H104.737V39.086C107.609 39.086 107.993 38.4659 107.993 35.4542V19.3326C107.993 16.2766 107.993 15.7451 105.234 16.8081L104.827 15.8337L108.445 14.4386L110.119 13.8185L110.706 14.35V35.4763L110.729 35.4542ZM106.478 5.75771C106.478 4.45115 107.518 3.47677 108.897 3.47677C110.277 3.47677 111.272 4.45115 111.272 5.75771C111.272 7.06426 110.232 8.03864 108.897 8.03864C107.563 8.03864 106.478 7.01997 106.478 5.75771Z" fill="black"/>
<path d="M116.382 39.086C119.208 39.086 119.593 38.4659 119.593 35.4542V19.3326C119.593 16.2766 119.638 15.7451 116.721 16.9188L116.314 15.9444L121.65 13.8185L122.284 14.35V18.4247H122.442C124.567 15.7008 126.535 13.8185 129.519 13.8185C133.024 13.8185 134.516 16.4316 134.516 20.3513V35.4542C134.516 38.4659 134.856 39.086 137.682 39.086V40.1046H128.683V39.086C131.441 39.086 131.803 38.4659 131.803 35.4542V20.4841C131.803 17.5832 130.559 16.2102 128.547 16.2102C126.173 16.2102 124.296 17.8046 122.306 20.0412V35.432C122.306 38.4438 122.645 39.0638 125.427 39.0638V40.0825H116.382V39.0638V39.086Z" fill="black"/>
<path d="M159.14 34.967C159.095 38.2666 158.259 40.8797 155.568 40.8797C153.352 40.8797 152.063 39.1303 152.063 35.5428V33.594C150.729 38.3773 148.196 40.8576 144.986 40.8576C141.775 40.8576 139.943 38.2888 139.943 35.2327C139.943 29.2314 146.614 26.419 152.063 23.8502V21.0821C152.063 16.8745 150.48 15.3686 147.857 15.3686C145.732 15.3686 144.104 16.3873 144.104 18.1811C144.104 19.3548 144.805 19.7755 144.805 20.7942C144.805 21.8129 144.217 22.4993 143.131 22.4993C141.797 22.4993 141.096 21.3921 141.096 19.8419C141.096 16.4538 144.217 13.7299 148.377 13.7299C152.086 13.7299 154.799 15.9001 154.799 21.0378V35.8971C154.799 38.5545 155.432 39.1303 156.224 39.1303C157.264 39.1303 158.055 38.1559 158.1 34.9227H159.14V34.967ZM152.063 31.0473V25.2896C147.609 27.6148 142.815 29.9844 142.815 34.5905C142.815 36.7607 143.81 38.4216 145.822 38.4216C148.038 38.4216 150.525 36.34 152.063 31.0695V31.0473Z" fill="black"/>
<path d="M173.476 27.6591C173.476 34.3912 176.393 39.1303 183.222 39.1303C186.184 39.1303 189.35 37.9123 191.633 35.4985L194.46 25.5775C195.251 22.7651 195.296 21.5471 186.003 21.5471L186.342 20.5284H201.04L200.836 21.5471C199.253 21.5471 198.372 21.99 197.512 24.891L194.143 36.4729C190.638 39.5289 186.681 40.8797 182.679 40.8797C173.838 40.8797 170.175 35.1663 170.175 27.3713C170.175 15.1693 180.011 0.686497 191.543 0.686497C195.545 0.686497 197.829 2.32523 199.095 4.40686C199.389 4.93834 199.728 4.93834 199.977 4.31828L201.311 1.01867L202.306 1.21798L198.733 14.4386H197.693C198.688 7.61789 197.693 2.36952 191.407 2.36952C182.204 2.36952 173.454 15.7894 173.454 27.6591H173.476Z" fill="black"/>
<path d="M201.741 33.3726C201.741 24.1602 208.863 13.9514 215.443 13.9514C219.106 13.9514 221.277 17.0074 221.277 21.5028C221.277 30.6487 214.109 40.7247 207.484 40.7247C203.821 40.7247 201.741 37.868 201.741 33.3726ZM218.405 21.3478C218.405 17.9596 217.275 15.5901 214.652 15.5901C210.107 15.5901 204.612 25.3339 204.612 33.4611C204.612 36.805 205.653 39.086 208.275 39.086C212.82 39.086 218.405 29.5415 218.405 21.3478Z" fill="black"/>
<path d="M223.357 40.1046L230.322 20.2406C230.774 18.9783 231.317 17.3838 231.317 16.8081C231.317 16.0773 231.023 15.878 230.571 15.878C228.897 15.878 226.365 19.0226 224.692 21.9236H223.651C225.686 18.0925 229.033 14.0842 232.153 14.0842C233.442 14.0842 234.075 15.1029 234.075 16.2545C234.075 17.2731 233.578 18.5797 232.99 20.2184L229.734 29.0321H230.141C235.59 17.8046 239.434 13.9735 242.69 13.9735C244.522 13.9735 245.517 15.1251 245.517 16.9852C245.517 20.9492 241.356 28.6557 238.733 34.9006C238.485 35.6313 238.032 36.6943 238.032 37.3144C238.032 38.0452 238.236 38.5323 239.027 38.5323C241.062 38.5323 243.324 35.1884 245.019 31.5124H246.06C244.318 35.6756 241.221 40.3704 237.852 40.3704C235.93 40.3704 235.229 39.3074 235.229 37.8459C235.229 36.9822 235.681 35.8971 236.11 34.8341C238.869 27.8584 242.442 20.5949 242.442 17.9818C242.442 16.7638 242.102 16.188 241.243 16.188C238.914 16.188 233.42 21.99 226.161 40.0604H223.335L223.357 40.1046Z" fill="black"/>
<path d="M263.244 17.2953C263.244 16.4316 262.747 15.5015 261.119 15.5015C255.579 15.5015 250.989 26.3083 250.989 33.129C250.989 36.2736 251.939 38.5545 254.109 38.5545C256.936 38.5545 259.943 35.1663 262.227 30.6487H263.177C260.554 36.8493 256.936 40.5697 253.341 40.7247L252.549 42.4742C254.584 42.5627 256.212 43.6478 256.212 45.663C256.212 48.3869 253.25 51 248.095 51C247.258 51 246.354 50.9114 245.472 50.8007L245.969 49.782C246.421 49.8263 247.009 49.8263 247.462 49.8263C251.758 49.8263 253.702 47.5897 253.702 45.7073C253.702 44.1129 252.413 43.5371 250.582 43.5371L251.916 40.5918C249.451 39.9718 248.049 37.3587 248.049 33.6161C248.049 24.9574 254.833 13.9071 261.345 13.9071C263.471 13.9071 265.053 15.2579 265.053 17.7382C265.053 20.2184 263.561 23.0751 261.933 23.0751C261.096 23.0751 260.599 22.3886 260.599 21.6135C260.599 19.8198 263.267 19.8198 263.267 17.2953H263.244Z" fill="black"/>
<path d="M285.743 34.967C285.698 38.2666 284.861 40.8797 282.17 40.8797C279.954 40.8797 278.665 39.1303 278.665 35.5428V33.594C277.331 38.3773 274.799 40.8576 271.588 40.8576C268.377 40.8576 266.546 38.2888 266.546 35.2327C266.546 29.2314 273.216 26.419 278.665 23.8502V21.0821C278.665 16.8745 277.083 15.3686 274.46 15.3686C272.334 15.3686 270.706 16.3873 270.706 18.1811C270.706 19.3548 271.407 19.7755 271.407 20.7942C271.407 21.8129 270.819 22.4993 269.734 22.4993C268.4 22.4993 267.699 21.3921 267.699 19.8419C267.699 16.4538 270.819 13.7299 274.98 13.7299C278.688 13.7299 281.401 15.9001 281.401 21.0378V35.8971C281.401 38.5545 282.035 39.1303 282.826 39.1303C283.866 39.1303 284.658 38.1559 284.703 34.9227H285.743V34.967ZM278.665 31.0473V25.2896C274.211 27.6148 269.417 29.9844 269.417 34.5905C269.417 36.7607 270.412 38.4216 272.425 38.4216C274.641 38.4216 277.128 36.34 278.665 31.0695V31.0473Z" fill="black"/>
<path d="M292.798 35.4542C292.798 38.4659 293.137 39.086 296.009 39.086V40.1046H286.76V39.086C289.677 39.086 290.016 38.4659 290.016 35.4542V5.91272C290.016 2.901 290.062 2.36952 287.19 3.67608L286.738 2.70169L290.491 1.06296L292.232 0.332176L292.775 0.863657V35.4542H292.798Z" fill="black"/>
<path d="M312.086 18.4911C312.922 15.5901 312.967 15.0586 309.621 15.0586V14.0399H317.784V15.0586C315.455 15.0586 314.663 15.5901 313.781 18.4911L307.247 39.9496H305.709L299.242 18.4911C298.36 15.5901 297.614 15.0586 295.443 15.0586V14.0399H304.737V15.0586C301.368 15.0586 301.435 15.5901 302.272 18.4911L306.975 34.7234H307.224L312.131 18.4911H312.086Z" fill="black"/>
<path d="M333.634 29.2979C332.843 37.0043 329.632 40.304 325.675 40.304C320.587 40.304 317.625 34.8341 317.625 27.1719C317.625 19.5098 320.7 13.2206 325.878 13.2206C330.627 13.2206 333.34 18.1146 333.34 25.3339H320.474V26.264C320.474 32.5975 322.645 37.8459 326.557 37.8459C328.841 37.8459 331.441 35.9635 332.594 29.32H333.634V29.2979ZM320.587 23.673H330.423C330.423 19.2662 329.248 14.8593 325.924 14.8593C322.6 14.8593 321.04 18.934 320.587 23.673Z" fill="black"/>
<path d="M340.056 38.5988C339.423 38.1116 339.016 38.2666 338.767 38.8424L338.428 39.8168H337.433L337.184 29.6522H338.134C338.767 35.7642 341.548 38.6652 344.714 38.6652C347.179 38.6652 348.468 36.8272 348.468 34.1033C348.468 31.6231 347.337 30.6044 342.837 26.7512C338.88 23.4073 337.501 21.7686 337.501 19.1554C337.501 15.723 339.92 13.2427 343.425 13.2427C345.505 13.2427 346.885 14.1728 347.676 14.8372C348.309 15.4129 348.807 15.1693 348.92 14.5936L349.123 13.5749H350.118L350.209 21.7021H349.214C348.829 17.9153 346.93 14.8815 343.629 14.8815C341.503 14.8815 339.966 16.3873 339.966 18.6018C339.966 20.8163 341.458 22.0786 344.669 24.7581C349.078 28.4342 351 30.4716 351 33.8155C351 38.1337 348.174 40.304 344.917 40.304C342.747 40.304 341.006 39.3296 340.079 38.5988H340.056Z" fill="black"/>
</g>
<defs>
<clipPath id="clip0_80_131">
<rect width="351" height="51" fill="white"/>
</clipPath>
</defs>
</svg>
