<?xml version="1.0" encoding="UTF-8"?>
<svg id="Layer_2" data-name="Layer 2" xmlns="http://www.w3.org/2000/svg" viewBox="0 0 315.78 50.05">
  <g id="Layer_1-2" data-name="Layer 1">
    <g>
      <path d="M2.45,36.86c-1.63-2.17-2.45-5.05-2.45-8.63,0-3.9.9-8.01,2.69-12.33s4.19-7.95,7.2-10.86C12.9,2.12,16.16.67,19.68.67c1.49,0,2.72.26,3.71.78.98.52,1.84,1.31,2.57,2.35.29.41.51.62.67.62.22,0,.43-.25.62-.76l1.05-2.66.95.19-3.52,13.02h-1c.25-1.84.38-3.41.38-4.71,0-2.31-.41-4.09-1.24-5.32-.82-1.24-2.2-1.85-4.13-1.85-3.04,0-5.83,1.42-8.37,4.25s-4.53,6.28-5.99,10.34c-1.46,4.06-2.19,7.76-2.19,11.12,0,3.07.65,5.51,1.95,7.29,1.3,1.79,3.14,2.69,5.51,2.69,2.72,0,5.22-1.12,7.49-3.35,2.26-2.23,4.3-5.27,6.11-9.1h1.24c-2.12,4.63-4.4,8.21-6.82,10.74-2.42,2.54-5.41,3.8-8.96,3.8-3.2,0-5.62-1.08-7.25-3.26Z"/>
      <path d="M42.46,35.91c1-1.28,1.96-2.94,2.88-4.97h1c-.95,2.34-2.14,4.38-3.56,6.11-1.43,1.73-2.88,2.59-4.37,2.59-1.68,0-2.52-.82-2.52-2.47,0-.47.13-1.04.38-1.69.25-.65.41-1.07.48-1.26l2.71-7.46h-.43c-1.49,3.2-3.26,6.17-5.32,8.91-2.06,2.74-3.96,4.11-5.7,4.11-2.44,0-3.66-1.84-3.66-5.51,0-2.66.72-5.62,2.16-8.86,1.44-3.25,3.25-6,5.42-8.27,2.17-2.26,4.27-3.4,6.3-3.4,1.36,0,2.38.47,3.07,1.4.68.93.96,2.19.83,3.78h.14l1.43-3.94c.51,0,1-.13,1.47-.4.48-.27.84-.61,1.09-1.02l.52.24-7.46,20.48c-.06.16-.19.52-.38,1.07-.19.56-.29.99-.29,1.31,0,.38.07.67.21.88.14.21.39.31.74.31.92,0,1.88-.64,2.88-1.93ZM32.41,35.27c1.43-1.49,2.8-3.31,4.13-5.47,1.33-2.15,2.31-4.13,2.95-5.94.73-2,1.09-3.68,1.09-5.04,0-2.22-.78-3.33-2.33-3.33s-3.21,1.01-4.97,3.04c-1.76,2.03-3.22,4.5-4.4,7.41-1.17,2.92-1.76,5.58-1.76,7.99,0,1.2.13,2.1.38,2.69.25.59.68.88,1.28.88.98,0,2.19-.74,3.61-2.23Z"/>
      <path d="M53.61,19.87c.57-1.87.86-3,.86-3.38,0-.6-.24-.9-.71-.9-.76,0-1.66.59-2.71,1.78-1.05,1.19-2.03,2.58-2.95,4.16h-1c1.08-2.09,2.36-3.9,3.85-5.42,1.49-1.52,2.93-2.28,4.33-2.28.6,0,1.06.21,1.38.62.32.41.47.92.47,1.52,0,.44-.1,1.01-.31,1.71-.21.7-.45,1.43-.74,2.19l-3.14,8.65h.33c1.87-5.29,3.83-9.08,5.87-11.36,2.04-2.28,4.03-3.42,5.96-3.42,1.01,0,1.52.4,1.52,1.19,0,.54-.18,1.02-.55,1.45s-.78.64-1.26.64c-.29,0-.62-.08-1-.24-.57-.16-.97-.24-1.19-.24-1.46,0-3.26,1.77-5.42,5.32-2.16,3.55-4.58,9.38-7.27,17.49h-2.76l6.42-19.49Z"/>
      <path d="M62.86,38.02c-.97-1.3-1.45-3.06-1.45-5.28,0-2.95.66-5.9,1.97-8.86,1.31-2.96,2.99-5.4,5.04-7.32,2.04-1.92,4.09-2.88,6.15-2.88,1.74,0,3.11.67,4.11,2.02,1,1.35,1.5,3.15,1.5,5.39,0,2.92-.66,5.85-1.97,8.79-1.32,2.95-3.01,5.36-5.09,7.25-2.08,1.89-4.14,2.83-6.2,2.83-1.74,0-3.1-.65-4.06-1.95ZM72.1,35.69c1.52-1.77,2.79-4.02,3.8-6.75,1.01-2.72,1.52-5.39,1.52-7.98,0-1.74-.3-3.12-.9-4.13-.6-1.01-1.51-1.52-2.71-1.52-1.43,0-2.89.9-4.4,2.71-1.51,1.81-2.76,4.08-3.75,6.82-1,2.74-1.5,5.41-1.5,8.01,0,1.71.29,3.06.86,4.04.57.98,1.46,1.47,2.66,1.47,1.43,0,2.9-.89,4.42-2.66Z"/>
      <path d="M82.46,34.22c-.35,1.04-.52,1.85-.52,2.42,0,.38.07.67.21.88.14.21.39.31.74.31.92,0,1.88-.64,2.88-1.93,1-1.28,1.96-2.94,2.88-4.97h1c-.95,2.34-2.14,4.38-3.57,6.11-1.43,1.73-2.88,2.59-4.37,2.59-1.68,0-2.52-.82-2.52-2.47,0-.6.22-1.6.67-2.99l9.32-28.94c.22-.67.33-1.14.33-1.43,0-.54-.27-.93-.81-1.16s-1.46-.36-2.76-.36l.29-.95c2.25,0,3.81-.09,4.68-.26.87-.17,1.54-.53,2.02-1.07l.57.19-11.03,34.03Z"/>
      <path d="M97.69,37.07c.14.48.43.81.86,1s1.12.29,2.07.29v1h-8.89v-1c.95,0,1.64-.09,2.07-.29.43-.19.71-.52.86-1s.21-1.24.21-2.28v-15.83c0-1.2-.05-2-.14-2.38-.1-.38-.35-.57-.76-.57s-1,.16-1.76.48l-.38-.95,3.47-1.38,1.62-.62.57.52v20.72c0,1.04.07,1.81.21,2.28ZM94.06,7.25c-.44-.43-.67-.96-.67-1.59s.22-1.17.67-1.59c.44-.43,1-.64,1.66-.64s1.17.21,1.62.64.67.96.67,1.59-.22,1.16-.67,1.59-.98.64-1.62.64c-.67,0-1.22-.21-1.66-.64Z"/>
      <path d="M101.14,38.36c.92,0,1.59-.09,2.02-.29.43-.19.71-.52.86-1s.21-1.24.21-2.28v-15.83c0-1.17-.05-1.96-.14-2.35-.1-.4-.33-.59-.71-.59s-1.01.19-1.9.57l-.38-.95,5.13-2.09.62.52v3.99h.14c1.17-1.52,2.27-2.65,3.28-3.4,1.01-.74,2.19-1.12,3.52-1.12,1.62,0,2.82.57,3.61,1.71s1.19,2.71,1.19,4.71v14.83c0,1.04.07,1.81.21,2.28s.42.81.83,1,1.08.29,2,.29v1h-8.65v-1c.92,0,1.58-.09,2-.29.41-.19.68-.52.81-1,.13-.48.19-1.24.19-2.28v-14.69c0-1.39-.27-2.44-.81-3.14-.54-.7-1.31-1.05-2.33-1.05s-2.04.32-2.97.95c-.94.63-1.94,1.57-3.02,2.8v15.11c0,1.04.06,1.81.19,2.28.13.48.4.81.81,1s1.08.29,2,.29v1h-8.7v-1Z"/>
      <path d="M140.49,34.32c-.06,3.87-1.21,5.8-3.42,5.8-1.08,0-1.91-.44-2.5-1.31s-.88-2.18-.88-3.92v-1.9c-.63,2.35-1.54,4.12-2.71,5.32-1.17,1.2-2.54,1.81-4.09,1.81s-2.71-.53-3.56-1.59c-.86-1.06-1.28-2.37-1.28-3.92,0-1.81.56-3.38,1.69-4.73,1.12-1.35,2.4-2.43,3.83-3.25s3.47-1.88,6.13-3.18v-2.71c0-2-.34-3.43-1.02-4.3-.68-.87-1.69-1.31-3.02-1.31-1.05,0-1.91.25-2.59.74-.68.49-1.02,1.16-1.02,2.02,0,.32.11.78.33,1.38.22.44.33.84.33,1.19,0,.51-.14.91-.43,1.21s-.68.45-1.19.45c-.63,0-1.12-.24-1.45-.71-.33-.48-.5-1.11-.5-1.9,0-1.11.31-2.12.93-3.02.62-.9,1.46-1.62,2.52-2.16,1.06-.54,2.24-.81,3.54-.81,1.87,0,3.37.59,4.49,1.78,1.12,1.19,1.69,2.99,1.69,5.39v14.59c0,1.21.12,2.04.36,2.5s.58.69,1.02.69c1.17,0,1.77-1.38,1.81-4.13h1ZM131.06,35.91c1.06-1.19,1.94-3,2.64-5.44v-5.66c-2,1.08-3.56,1.98-4.71,2.71-1.14.73-2.12,1.63-2.95,2.71s-1.24,2.31-1.24,3.71c0,1.11.25,2.01.74,2.71.49.7,1.21,1.05,2.16,1.05,1.17,0,2.29-.59,3.35-1.78Z"/>
      <path d="M161.29,6.06c-2.68,2.49-4.84,5.66-6.49,9.53-1.65,3.87-2.47,7.72-2.47,11.55,0,3.45.77,6.2,2.31,8.22,1.54,2.03,3.89,3.04,7.06,3.04,1.46,0,2.9-.3,4.33-.9,1.43-.6,2.68-1.49,3.75-2.66l2.71-9.74c.22-.73.33-1.28.33-1.66,0-.54-.24-.97-.71-1.31-.48-.33-1.32-.58-2.54-.74-1.22-.16-2.96-.24-5.2-.24l.33-1h14.12l-.19,1c-.82,0-1.47.21-1.92.64s-.88,1.31-1.26,2.64l-3.23,11.36c-3.26,2.88-6.94,4.33-11.03,4.33s-7.07-1.2-9.05-3.59c-1.98-2.39-2.97-5.62-2.97-9.67s.95-8.03,2.85-12.12c1.9-4.09,4.44-7.45,7.6-10.1,3.17-2.65,6.53-3.97,10.08-3.97,3.36,0,5.78,1.22,7.27,3.66.16.25.3.38.43.38.16,0,.3-.16.43-.48l1.28-3.23.95.19-3.42,12.97h-1c.22-1.68.33-3.03.33-4.04,0-5.2-2.12-7.79-6.37-7.79-2.85,0-5.62,1.24-8.29,3.73Z"/>
      <path d="M179.21,38.02c-.97-1.3-1.45-3.06-1.45-5.28,0-2.95.66-5.9,1.97-8.86,1.31-2.96,2.99-5.4,5.04-7.32,2.04-1.92,4.09-2.88,6.15-2.88,1.74,0,3.11.67,4.11,2.02,1,1.35,1.5,3.15,1.5,5.39,0,2.92-.66,5.85-1.97,8.79-1.32,2.95-3.01,5.36-5.09,7.25-2.08,1.89-4.14,2.83-6.2,2.83-1.74,0-3.1-.65-4.06-1.95ZM188.45,35.69c1.52-1.77,2.79-4.02,3.8-6.75,1.01-2.72,1.52-5.39,1.52-7.98,0-1.74-.3-3.12-.9-4.13-.6-1.01-1.51-1.52-2.71-1.52-1.43,0-2.89.9-4.4,2.71-1.51,1.81-2.76,4.08-3.75,6.82-1,2.74-1.5,5.41-1.5,8.01,0,1.71.29,3.06.86,4.04.57.98,1.46,1.47,2.66,1.47,1.43,0,2.9-.89,4.42-2.66Z"/>
      <path d="M203.47,19.87c.63-1.84.95-2.96.95-3.38,0-.6-.24-.9-.71-.9-.76,0-1.66.59-2.71,1.78-1.05,1.19-2.03,2.58-2.95,4.16h-1c1.08-2.09,2.36-3.9,3.85-5.42,1.49-1.52,2.93-2.28,4.33-2.28.6,0,1.06.21,1.38.62.32.41.47.92.47,1.52,0,.44-.1,1.01-.31,1.71-.21.7-.45,1.43-.74,2.19l-3.14,8.65h.38c2.5-5.29,4.73-9.08,6.68-11.36,1.95-2.28,3.75-3.42,5.39-3.42.86,0,1.52.26,2,.78.48.52.71,1.24.71,2.16,0,1.3-.36,2.9-1.07,4.8-.71,1.9-1.8,4.48-3.26,7.75-1.01,2.28-1.74,3.96-2.19,5.04-.06.16-.19.52-.38,1.07-.19.56-.29.99-.29,1.31,0,.38.07.67.21.88.14.21.39.31.74.31.92,0,1.88-.65,2.9-1.95,1.01-1.3,1.96-2.95,2.85-4.94h1c-.95,2.34-2.13,4.38-3.54,6.11-1.41,1.73-2.86,2.59-4.35,2.59-1.68,0-2.52-.82-2.52-2.47,0-.38.09-.84.26-1.38s.37-1.06.59-1.57c.41-1.08,1.24-3.09,2.47-6.04,1.33-3.23,2.26-5.59,2.8-7.08.54-1.49.81-2.63.81-3.42,0-.6-.09-1.05-.26-1.33-.17-.29-.47-.43-.88-.43-.82,0-1.94.77-3.35,2.31-1.41,1.54-3.07,4.06-4.99,7.58-1.92,3.52-3.97,8.03-6.16,13.55h-2.71l6.7-19.49Z"/>
      <path d="M231.08,20.29c.19-.25.47-.52.86-.81.47-.41.83-.78,1.07-1.12.24-.33.36-.8.36-1.4,0-.51-.16-.93-.48-1.26-.32-.33-.84-.5-1.57-.5-1.68,0-3.27.94-4.78,2.83-1.51,1.89-2.71,4.2-3.61,6.94-.9,2.74-1.35,5.25-1.35,7.53,0,1.62.25,2.91.74,3.87.49.97,1.24,1.45,2.26,1.45,1.3,0,2.64-.71,4.02-2.14,1.38-1.43,2.64-3.29,3.78-5.61h.9c-1.27,3.04-2.72,5.43-4.37,7.18-1.65,1.74-3.34,2.64-5.09,2.71l-.76,1.71c1.01.06,1.85.36,2.52.9.67.54,1,1.28,1,2.23s-.31,1.77-.93,2.57-1.52,1.43-2.71,1.92-2.58.74-4.16.74c-.54,0-1.38-.06-2.52-.19l.48-1c.29.03.76.05,1.43.05,1.93,0,3.41-.41,4.44-1.24,1.03-.82,1.54-1.76,1.54-2.8,0-1.43-1-2.14-2.99-2.14l1.28-2.9c-1.17-.32-2.08-1.08-2.73-2.28s-.97-2.73-.97-4.56c0-2.79.63-5.7,1.9-8.75s2.89-5.57,4.87-7.58c1.98-2.01,3.98-3.02,6.01-3.02,1.04,0,1.9.33,2.57,1,.67.67,1,1.58,1,2.76,0,1.3-.31,2.5-.93,3.59-.62,1.09-1.31,1.64-2.07,1.64-.38,0-.69-.13-.93-.4-.24-.27-.36-.61-.36-1.02,0-.35.09-.65.29-.9Z"/>
      <path d="M251.64,35.91c1-1.28,1.96-2.94,2.88-4.97h1c-.95,2.34-2.14,4.38-3.56,6.11-1.43,1.73-2.88,2.59-4.37,2.59-1.68,0-2.52-.82-2.52-2.47,0-.47.13-1.04.38-1.69.25-.65.41-1.07.48-1.26l2.71-7.46h-.43c-1.49,3.2-3.26,6.17-5.32,8.91-2.06,2.74-3.96,4.11-5.7,4.11-2.44,0-3.66-1.84-3.66-5.51,0-2.66.72-5.62,2.16-8.86,1.44-3.25,3.25-6,5.42-8.27,2.17-2.26,4.27-3.4,6.3-3.4,1.36,0,2.38.47,3.07,1.4.68.93.96,2.19.83,3.78h.14l1.43-3.94c.51,0,1-.13,1.47-.4.48-.27.84-.61,1.09-1.02l.52.24-7.46,20.48c-.06.16-.19.52-.38,1.07-.19.56-.29.99-.29,1.31,0,.38.07.67.21.88.14.21.39.31.74.31.92,0,1.88-.64,2.88-1.93ZM241.59,35.27c1.43-1.49,2.8-3.31,4.13-5.47,1.33-2.15,2.31-4.13,2.95-5.94.73-2,1.09-3.68,1.09-5.04,0-2.22-.78-3.33-2.33-3.33s-3.21,1.01-4.97,3.04c-1.76,2.03-3.22,4.5-4.4,7.41-1.17,2.92-1.76,5.58-1.76,7.99,0,1.2.13,2.1.38,2.69.25.59.68.88,1.28.88.98,0,2.19-.74,3.61-2.23Z"/>
      <path d="M258.46,34.22c-.35,1.04-.52,1.85-.52,2.42,0,.38.07.67.21.88.14.21.39.31.74.31.92,0,1.88-.64,2.88-1.93,1-1.28,1.96-2.94,2.88-4.97h1c-.95,2.34-2.14,4.38-3.57,6.11-1.43,1.73-2.88,2.59-4.37,2.59-1.68,0-2.52-.82-2.52-2.47,0-.6.22-1.6.67-2.99l9.32-28.94c.22-.67.33-1.14.33-1.43,0-.54-.27-.93-.81-1.16s-1.46-.36-2.76-.36l.29-.95c2.25,0,3.81-.09,4.68-.26.87-.17,1.54-.53,2.02-1.07l.57.19-11.03,34.03Z"/>
      <path d="M284.53,14.47c.33.52.5,1.26.5,2.21,0,3.04-.74,6.4-2.23,10.08-1.49,3.68-3.34,6.8-5.56,9.36-2.22,2.57-4.34,3.85-6.37,3.85-2.92,0-4.37-1.9-4.37-5.7,0-4.56,3.17-10.39,9.51-17.49h-.29c-.38,0-1.2-.16-2.47-.48-1.27-.32-2.06-.47-2.38-.47-.35,0-.61.09-.78.26s-.26.4-.26.69c0,.32.16.7.48,1.14.38.44.57.87.57,1.28,0,.38-.12.69-.36.93-.24.24-.52.36-.83.36-.7,0-1.04-.47-1.04-1.43,0-.79.27-1.73.81-2.8.38-.79.81-1.37,1.28-1.74.48-.36,1.09-.55,1.85-.55.19,0,1.03.08,2.52.24,1.01.16,1.74.24,2.19.24.32,0,.56-.05.74-.14.17-.09.37-.24.59-.43l.05-.05.62.71c-2.72,2.92-5.07,6.14-7.03,9.67s-2.95,6.63-2.95,9.29.93,4.13,2.8,4.13c1.52,0,3.14-1.02,4.85-3.07s3.15-4.48,4.33-7.3c1.17-2.82,1.76-5.21,1.76-7.18,0-.48-.07-.98-.21-1.52s-.31-1.05-.5-1.52c-.35-.89-.52-1.55-.52-2,0-.38.1-.71.31-.97.21-.27.53-.4.97-.4.63,0,1.12.26,1.45.78Z"/>
      <path d="M294.27,35.58c1.41-1.54,2.72-3.6,3.92-6.2h.95c-1.27,3.23-2.79,5.81-4.56,7.72-1.78,1.92-3.68,2.88-5.7,2.88-1.58,0-2.82-.57-3.71-1.71-.89-1.14-1.33-2.73-1.33-4.75,0-2.54.65-5.37,1.95-8.51,1.3-3.14,2.96-5.8,4.99-7.99,2.03-2.19,4.09-3.28,6.18-3.28,1.11,0,1.99.34,2.64,1.02s.97,1.59.97,2.73c0,1.62-.63,3.22-1.88,4.8-1.25,1.58-2.9,2.96-4.94,4.13-2.04,1.17-4.17,1.93-6.39,2.28-.44,1.78-.67,3.34-.67,4.71s.3,2.53.9,3.3c.6.78,1.41,1.16,2.42,1.16,1.43,0,2.84-.77,4.25-2.3ZM291.51,18.87c-1.63,2.44-2.91,5.28-3.83,8.51,1.87-.41,3.61-1.1,5.23-2.07,1.62-.97,2.91-2.13,3.87-3.49.97-1.36,1.45-2.8,1.45-4.33,0-.73-.13-1.29-.38-1.69-.25-.4-.7-.59-1.33-.59-1.71,0-3.38,1.22-5.01,3.66Z"/>
      <path d="M301.57,39.26c-.95-.48-1.7-1.08-2.23-1.83-.54-.74-.81-1.51-.81-2.31,0-.51.13-.9.4-1.19.27-.29.61-.43,1.02-.43.35,0,.6.12.76.36.16.24.35.71.57,1.4.35,1.08.85,1.9,1.5,2.47.65.57,1.53.86,2.64.86,1.24,0,2.19-.42,2.85-1.26.67-.84,1-1.93,1-3.26,0-.79-.14-1.54-.4-2.23-.27-.7-.67-1.49-1.21-2.38l-1.43-2.47c-.98-1.62-1.66-2.88-2.04-3.78-.38-.9-.57-1.85-.57-2.83,0-1.3.32-2.46.95-3.47.63-1.01,1.49-1.81,2.57-2.4,1.08-.59,2.26-.88,3.56-.88,1.01,0,1.91.2,2.69.59.78.4,1.37.89,1.78,1.47.41.59.62,1.15.62,1.69,0,.48-.14.86-.43,1.14s-.62.43-1,.43c-.35,0-.62-.13-.81-.38s-.36-.63-.52-1.14c-.32-.79-.71-1.4-1.17-1.83s-1.15-.64-2.07-.64c-1.14,0-2.05.36-2.73,1.07-.68.71-1.02,1.72-1.02,3.02,0,1.46.59,3.15,1.76,5.09l1.38,2.42c1.04,1.81,1.73,3.08,2.04,3.83.32.75.48,1.58.48,2.5,0,2.09-.65,3.79-1.95,5.11-1.3,1.32-2.95,1.97-4.94,1.97-1.2,0-2.28-.24-3.23-.71Z"/>
    </g>
  </g>
</svg>